HIERARCHY
ROOT Hips
{
    OFFSET 0.000000 0.000000 0.000000
    CHANNELS 6 Xposition Yposition Zposition Zrotation Xrotation Yrotation
    JOINT Spine
    {
        OFFSET -0.000000 6.993131 0.000000
        CHANNELS 3 Zrotation Xrotation Yrotation
        JOINT Spine1
        {
            OFFSET -0.000000 20.649729 0.000000
            CHANNELS 3 Zrotation Xrotation Yrotation
            JOINT Neck
            {
                OFFSET -0.000000 20.564924 1.869539
                CHANNELS 3 Zrotation Xrotation Yrotation
                JOINT Head
                {
                    OFFSET -0.000000 11.939490 -1.705642
                    CHANNELS 3 Zrotation Xrotation Yrotation
                    End Site
                    {
                        OFFSET -0.000000 21.320518 0.000000
                    }
                }
            }
            JOINT LeftShoulder
            {
                OFFSET 3.446977 19.850397 -0.038759
                CHANNELS 3 Zrotation Xrotation Yrotation
                JOINT LeftArm
                {
                    OFFSET 7.083611 0.000000 0.000000
                    CHANNELS 3 Zrotation Xrotation Yrotation
                    JOINT LeftForeArm
                    {
                        OFFSET 32.044487 0.000000 0.000000
                        CHANNELS 3 Zrotation Xrotation Yrotation
                        JOINT LeftHand
                        {
                            OFFSET 22.068741 0.000000 0.000000
                            CHANNELS 3 Zrotation Xrotation Yrotation
                            End Site
                            {
                                OFFSET 12.792312 0.000000 0.000000
                            }
                        }
                    }
                }
            }
            JOINT RightShoulder
            {
                OFFSET -3.365844 19.850397 -0.038759
                CHANNELS 3 Zrotation Xrotation Yrotation
                JOINT RightArm
                {
                    OFFSET -7.083611 0.000000 0.000000
                    CHANNELS 3 Zrotation Xrotation Yrotation
                    JOINT RightForeArm
                    {
                        OFFSET -32.044487 0.000000 0.000000
                        CHANNELS 3 Zrotation Xrotation Yrotation
                        JOINT RightHand
                        {
                            OFFSET -22.068741 0.000000 0.000000
                            CHANNELS 3 Zrotation Xrotation Yrotation
                            End Site
                            {
                                OFFSET -12.792312 0.000000 0.000000
                            }
                        }
                    }
                }
            }
        }
    }
    JOINT LeftUpLeg
    {
        OFFSET 8.528208 0.000000 0.000000
        CHANNELS 3 Zrotation Xrotation Yrotation
        JOINT LeftLeg
        {
            OFFSET -0.000000 -31.874865 0.000000
            CHANNELS 3 Zrotation Xrotation Yrotation
            JOINT LeftFoot
            {
                OFFSET -0.000000 -38.221939 0.000000
                CHANNELS 3 Zrotation Xrotation Yrotation
                JOINT LeftToeBase
                {
                    OFFSET -0.000000 -5.543335 12.792312
                    CHANNELS 3 Zrotation Xrotation Yrotation
                    End Site
                    {
                        OFFSET -0.000000 0.000000 3.411283
                    }
                }
            }
        }
    }
    JOINT RightUpLeg
    {
        OFFSET -8.528208 0.000000 0.000000
        CHANNELS 3 Zrotation Xrotation Yrotation
        JOINT RightLeg
        {
            OFFSET -0.000000 -31.874865 0.000000
            CHANNELS 3 Zrotation Xrotation Yrotation
            JOINT RightFoot
            {
                OFFSET -0.000000 -38.221939 0.000000
                CHANNELS 3 Zrotation Xrotation Yrotation
                JOINT RightToeBase
                {
                    OFFSET -0.000000 -5.543335 12.792312
                    CHANNELS 3 Zrotation Xrotation Yrotation
                    End Site
                    {
                        OFFSET -0.000000 0.000000 3.411283
                    }
                }
            }
        }
    }
}
MOTION
Frames:    7
Frame Time:    0.008333
-208.146423    77.095848    27.677277    -4.010320    1.674266    87.058006    -1.054390    -7.678754    1.733392    -2.733169    3.264388    1.882051    3.756904    12.975759    5.544553    -2.399008    3.719115    5.391215    23.037420    -1.220630    -1.107385    -22.421890    -4.227873    -5.955034    2.953676    -5.412890    -0.059560    18.090542    -12.615296    -43.560890    -11.781839    0.697722    -0.426016    11.456311    2.702419    2.597481    -7.882260    6.900091    3.959194    0.639175    7.176626    1.035229    -7.018514    -9.415751    0.750310    3.116984    16.127687    5.192817    -3.335749    -3.998715    -4.858597    0.000000    0.000000    0.000000    -7.901220    0.297897    -2.642086    9.776237    10.910276    -3.507228    -2.060366    -8.632177    -15.251661    0.000000    0.000000    0.000000    
-208.142090    77.098450    27.686899    -3.993505    1.641137    87.079674    -1.071036    -7.696543    1.740823    -2.664158    3.295142    1.889535    3.761701    13.004884    5.501511    -2.381971    3.694812    5.348622    23.048265    -1.251737    -1.164512    -22.437143    -4.215522    -5.964882    -19.253452    -23.476107    -13.487296    75.902359    -27.678791    -3.027728    -11.814215    0.682333    -0.454970    11.442433    2.729604    2.616678    -7.729305    6.745609    4.007047    0.044253    7.014711    0.643673    -6.987760    -9.412082    0.747296    3.134905    16.156662    5.207153    -3.332391    -3.995745    -4.920814    0.000000    0.000000    0.000000    -7.903311    0.261453    -2.484581    9.712331    11.026714    -3.381530    -1.924587    -8.642675    -14.970251    0.000000    0.000000    0.000000    
-208.130219    77.096558    27.690691    -3.957864    1.637921    87.142006    -1.116996    -7.687773    1.728965    -2.608014    3.291636    1.878982    4.071126    13.000308    5.422217    -2.838776    3.853390    5.209841    23.070690    -1.268394    -1.230662    -22.466808    -4.270080    -6.007839    -19.253452    -23.476107    -13.487296    75.902359    -27.678791    -3.027728    -11.809002    0.667713    -0.476748    11.407414    2.757159    2.622183    -7.712181    6.763491    3.996757    0.063094    7.031397    0.601086    -6.984257    -9.373862    0.673868    3.103075    16.243668    4.380311    -3.195153    -4.151126    -4.004014    0.000000    0.000000    0.000000    -7.955094    0.286227    -2.451955    9.713036    11.226536    -3.250790    -1.760926    -8.852490    -14.761746    0.000000    0.000000    0.000000    
-208.122131    77.098160    27.698248    -3.935474    1.621086    87.189125    -1.156534    -7.708527    1.725358    -2.529007    3.335168    1.876920    4.089850    12.963338    5.389744    -2.851825    3.937979    5.174729    23.234161    -1.415465    -1.264506    -22.689970    -4.244565    -6.033467    4.634808    3.212417    -2.307470    -3.360819    3.406816    -3.452390    -11.837027    0.665792    -0.515913    11.379719    2.799907    2.631883    -7.689603    6.774332    3.995589    0.119487    7.041685    0.604262    -6.976789    -9.364996    0.637346    3.119560    16.280996    4.333919    -3.183038    -4.137343    -3.958735    0.000000    0.000000    0.000000    -8.003740    0.246796    -2.257086    9.600178    11.287801    -3.033683    -1.351752    -8.722174    -14.486074    0.000000    0.000000    0.000000    
-208.111237    77.098503    27.707100    -3.903124    1.601472    87.212746    -1.189175    -7.711196    1.733581    -2.464789    3.358918    1.886021    4.117238    12.973431    5.346198    -2.847145    3.960190    5.129978    23.255404    -1.425167    -1.307374    -22.760424    -4.066804    -6.116846    4.712694    3.184131    -2.119706    -3.791024    3.387940    -3.530789    -11.818444    0.670965    -0.575398    11.319649    2.809295    2.666285    -7.675680    6.830928    4.007433    0.200905    7.098934    0.580469    -6.935488    -9.316455    0.597244    3.078351    16.266644    4.411508    -3.158628    -4.152525    -4.019349    0.000000    0.000000    0.000000    -8.059291    0.221486    -2.014263    9.620880    11.434344    -2.566255    -0.995961    -8.771861    -14.725846    0.000000    0.000000    0.000000    
-208.103088    77.095963    27.714830    -3.873900    1.583868    87.251442    -1.239552    -7.708352    1.745861    -2.375204    3.367077    1.899202    4.173514    12.990320    5.285027    -2.896313    4.000765    5.060894    23.250004    -1.430624    -1.383459    -22.740170    -4.252893    -6.142839    4.508224    3.320598    -2.123652    -3.980678    3.526644    -3.532130    -11.821744    0.664942    -0.621818    11.278036    2.832755    2.655369    -7.679983    6.906412    4.008411    0.372284    7.175613    0.629315    -6.923719    -9.301338    0.593536    3.093111    16.301739    4.388468    -2.721164    -3.955799    -4.051068    0.000000    0.000000    0.000000    -8.118163    0.206229    -1.829839    9.627690    11.536759    -2.671173    -0.847764    -8.815847    -14.331464    0.000000    0.000000    0.000000    
-208.092377    77.095024    27.720684    -3.837680    1.575084    87.268166    -1.276070    -7.712223    1.751181    -2.307982    3.400706    1.905745    4.163680    12.985816    5.237239    -2.870123    4.052370    5.015350    23.244291    -1.443244    -1.417637    -22.792473    -4.139863    -6.224146    4.567414    3.285857    -1.967479    -4.321307    3.501556    -3.645764    -11.840129    0.630208    -0.671887    11.249253    2.867845    2.686444    -7.685363    6.967123    4.013668    0.554052    7.237978    0.663410    -6.900925    -9.246742    0.539502    3.052002    16.288191    4.407649    -2.638231    -3.945930    -3.978265    0.000000    0.000000    0.000000    -8.180226    0.208639    -1.711821    9.602761    11.638192    -2.421439    -1.030249    -8.851386    -14.196594    0.000000    0.000000    0.000000    
